<?xml version="1.0" encoding="utf-8" standalone="no"?>
<!DOCTYPE svg PUBLIC "-//W3C//DTD SVG 1.1//EN"
  "http://www.w3.org/Graphics/SVG/1.1/DTD/svg11.dtd">
<!-- Created with matplotlib (https://matplotlib.org/) -->
<svg height="288pt" version="1.1" viewBox="0 0 432 288" width="432pt" xmlns="http://www.w3.org/2000/svg" xmlns:xlink="http://www.w3.org/1999/xlink">
 <defs>
  <style type="text/css">
*{stroke-linecap:butt;stroke-linejoin:round;}
  </style>
 </defs>
 <g id="figure_1">
  <g id="patch_1">
   <path d="M 0 288 
L 432 288 
L 432 0 
L 0 0 
z
" style="fill:#ffffff;"/>
  </g>
  <g id="axes_1">
   <g id="patch_2">
    <path d="M 54 252 
L 388.8 252 
L 388.8 34.56 
L 54 34.56 
z
" style="fill:#ffffff;"/>
   </g>
   <g id="matplotlib.axis_1">
    <g id="xtick_1">
     <g id="line2d_1">
      <path clip-path="url(#pa47ccf754e)" d="M 54 252 
L 54 34.56 
" style="fill:none;stroke:#b0b0b0;stroke-linecap:square;stroke-width:0.8;"/>
     </g>
     <g id="line2d_2">
      <defs>
       <path d="M 0 0 
L 0 3.5 
" id="m012d25d5ec" style="stroke:#000000;stroke-width:0.8;"/>
      </defs>
      <g>
       <use style="stroke:#000000;stroke-width:0.8;" x="54" xlink:href="#m012d25d5ec" y="252"/>
      </g>
     </g>
     <g id="text_1">
      <!-- 0 -->
      <defs>
       <path d="M 31.78125 66.40625 
Q 24.171875 66.40625 20.328125 58.90625 
Q 16.5 51.421875 16.5 36.375 
Q 16.5 21.390625 20.328125 13.890625 
Q 24.171875 6.390625 31.78125 6.390625 
Q 39.453125 6.390625 43.28125 13.890625 
Q 47.125 21.390625 47.125 36.375 
Q 47.125 51.421875 43.28125 58.90625 
Q 39.453125 66.40625 31.78125 66.40625 
z
M 31.78125 74.21875 
Q 44.046875 74.21875 50.515625 64.515625 
Q 56.984375 54.828125 56.984375 36.375 
Q 56.984375 17.96875 50.515625 8.265625 
Q 44.046875 -1.421875 31.78125 -1.421875 
Q 19.53125 -1.421875 13.0625 8.265625 
Q 6.59375 17.96875 6.59375 36.375 
Q 6.59375 54.828125 13.0625 64.515625 
Q 19.53125 74.21875 31.78125 74.21875 
z
" id="DejaVuSans-48"/>
      </defs>
      <g transform="translate(49.54625 269.637812)scale(0.14 -0.14)">
       <use xlink:href="#DejaVuSans-48"/>
      </g>
     </g>
    </g>
    <g id="xtick_2">
     <g id="line2d_3">
      <path clip-path="url(#pa47ccf754e)" d="M 137.7 252 
L 137.7 34.56 
" style="fill:none;stroke:#b0b0b0;stroke-linecap:square;stroke-width:0.8;"/>
     </g>
     <g id="line2d_4">
      <g>
       <use style="stroke:#000000;stroke-width:0.8;" x="137.7" xlink:href="#m012d25d5ec" y="252"/>
      </g>
     </g>
     <g id="text_2">
      <!-- 200 -->
      <defs>
       <path d="M 19.1875 8.296875 
L 53.609375 8.296875 
L 53.609375 0 
L 7.328125 0 
L 7.328125 8.296875 
Q 12.9375 14.109375 22.625 23.890625 
Q 32.328125 33.6875 34.8125 36.53125 
Q 39.546875 41.84375 41.421875 45.53125 
Q 43.3125 49.21875 43.3125 52.78125 
Q 43.3125 58.59375 39.234375 62.25 
Q 35.15625 65.921875 28.609375 65.921875 
Q 23.96875 65.921875 18.8125 64.3125 
Q 13.671875 62.703125 7.8125 59.421875 
L 7.8125 69.390625 
Q 13.765625 71.78125 18.9375 73 
Q 24.125 74.21875 28.421875 74.21875 
Q 39.75 74.21875 46.484375 68.546875 
Q 53.21875 62.890625 53.21875 53.421875 
Q 53.21875 48.921875 51.53125 44.890625 
Q 49.859375 40.875 45.40625 35.40625 
Q 44.1875 33.984375 37.640625 27.21875 
Q 31.109375 20.453125 19.1875 8.296875 
z
" id="DejaVuSans-50"/>
      </defs>
      <g transform="translate(124.33875 269.637812)scale(0.14 -0.14)">
       <use xlink:href="#DejaVuSans-50"/>
       <use x="63.623047" xlink:href="#DejaVuSans-48"/>
       <use x="127.246094" xlink:href="#DejaVuSans-48"/>
      </g>
     </g>
    </g>
    <g id="xtick_3">
     <g id="line2d_5">
      <path clip-path="url(#pa47ccf754e)" d="M 221.4 252 
L 221.4 34.56 
" style="fill:none;stroke:#b0b0b0;stroke-linecap:square;stroke-width:0.8;"/>
     </g>
     <g id="line2d_6">
      <g>
       <use style="stroke:#000000;stroke-width:0.8;" x="221.4" xlink:href="#m012d25d5ec" y="252"/>
      </g>
     </g>
     <g id="text_3">
      <!-- 400 -->
      <defs>
       <path d="M 37.796875 64.3125 
L 12.890625 25.390625 
L 37.796875 25.390625 
z
M 35.203125 72.90625 
L 47.609375 72.90625 
L 47.609375 25.390625 
L 58.015625 25.390625 
L 58.015625 17.1875 
L 47.609375 17.1875 
L 47.609375 0 
L 37.796875 0 
L 37.796875 17.1875 
L 4.890625 17.1875 
L 4.890625 26.703125 
z
" id="DejaVuSans-52"/>
      </defs>
      <g transform="translate(208.03875 269.637812)scale(0.14 -0.14)">
       <use xlink:href="#DejaVuSans-52"/>
       <use x="63.623047" xlink:href="#DejaVuSans-48"/>
       <use x="127.246094" xlink:href="#DejaVuSans-48"/>
      </g>
     </g>
    </g>
    <g id="xtick_4">
     <g id="line2d_7">
      <path clip-path="url(#pa47ccf754e)" d="M 305.1 252 
L 305.1 34.56 
" style="fill:none;stroke:#b0b0b0;stroke-linecap:square;stroke-width:0.8;"/>
     </g>
     <g id="line2d_8">
      <g>
       <use style="stroke:#000000;stroke-width:0.8;" x="305.1" xlink:href="#m012d25d5ec" y="252"/>
      </g>
     </g>
     <g id="text_4">
      <!-- 600 -->
      <defs>
       <path d="M 33.015625 40.375 
Q 26.375 40.375 22.484375 35.828125 
Q 18.609375 31.296875 18.609375 23.390625 
Q 18.609375 15.53125 22.484375 10.953125 
Q 26.375 6.390625 33.015625 6.390625 
Q 39.65625 6.390625 43.53125 10.953125 
Q 47.40625 15.53125 47.40625 23.390625 
Q 47.40625 31.296875 43.53125 35.828125 
Q 39.65625 40.375 33.015625 40.375 
z
M 52.59375 71.296875 
L 52.59375 62.3125 
Q 48.875 64.0625 45.09375 64.984375 
Q 41.3125 65.921875 37.59375 65.921875 
Q 27.828125 65.921875 22.671875 59.328125 
Q 17.53125 52.734375 16.796875 39.40625 
Q 19.671875 43.65625 24.015625 45.921875 
Q 28.375 48.1875 33.59375 48.1875 
Q 44.578125 48.1875 50.953125 41.515625 
Q 57.328125 34.859375 57.328125 23.390625 
Q 57.328125 12.15625 50.6875 5.359375 
Q 44.046875 -1.421875 33.015625 -1.421875 
Q 20.359375 -1.421875 13.671875 8.265625 
Q 6.984375 17.96875 6.984375 36.375 
Q 6.984375 53.65625 15.1875 63.9375 
Q 23.390625 74.21875 37.203125 74.21875 
Q 40.921875 74.21875 44.703125 73.484375 
Q 48.484375 72.75 52.59375 71.296875 
z
" id="DejaVuSans-54"/>
      </defs>
      <g transform="translate(291.73875 269.637812)scale(0.14 -0.14)">
       <use xlink:href="#DejaVuSans-54"/>
       <use x="63.623047" xlink:href="#DejaVuSans-48"/>
       <use x="127.246094" xlink:href="#DejaVuSans-48"/>
      </g>
     </g>
    </g>
    <g id="xtick_5">
     <g id="line2d_9">
      <path clip-path="url(#pa47ccf754e)" d="M 388.8 252 
L 388.8 34.56 
" style="fill:none;stroke:#b0b0b0;stroke-linecap:square;stroke-width:0.8;"/>
     </g>
     <g id="line2d_10">
      <g>
       <use style="stroke:#000000;stroke-width:0.8;" x="388.8" xlink:href="#m012d25d5ec" y="252"/>
      </g>
     </g>
     <g id="text_5">
      <!-- 800 -->
      <defs>
       <path d="M 31.78125 34.625 
Q 24.75 34.625 20.71875 30.859375 
Q 16.703125 27.09375 16.703125 20.515625 
Q 16.703125 13.921875 20.71875 10.15625 
Q 24.75 6.390625 31.78125 6.390625 
Q 38.8125 6.390625 42.859375 10.171875 
Q 46.921875 13.96875 46.921875 20.515625 
Q 46.921875 27.09375 42.890625 30.859375 
Q 38.875 34.625 31.78125 34.625 
z
M 21.921875 38.8125 
Q 15.578125 40.375 12.03125 44.71875 
Q 8.5 49.078125 8.5 55.328125 
Q 8.5 64.0625 14.71875 69.140625 
Q 20.953125 74.21875 31.78125 74.21875 
Q 42.671875 74.21875 48.875 69.140625 
Q 55.078125 64.0625 55.078125 55.328125 
Q 55.078125 49.078125 51.53125 44.71875 
Q 48 40.375 41.703125 38.8125 
Q 48.828125 37.15625 52.796875 32.3125 
Q 56.78125 27.484375 56.78125 20.515625 
Q 56.78125 9.90625 50.3125 4.234375 
Q 43.84375 -1.421875 31.78125 -1.421875 
Q 19.734375 -1.421875 13.25 4.234375 
Q 6.78125 9.90625 6.78125 20.515625 
Q 6.78125 27.484375 10.78125 32.3125 
Q 14.796875 37.15625 21.921875 38.8125 
z
M 18.3125 54.390625 
Q 18.3125 48.734375 21.84375 45.5625 
Q 25.390625 42.390625 31.78125 42.390625 
Q 38.140625 42.390625 41.71875 45.5625 
Q 45.3125 48.734375 45.3125 54.390625 
Q 45.3125 60.0625 41.71875 63.234375 
Q 38.140625 66.40625 31.78125 66.40625 
Q 25.390625 66.40625 21.84375 63.234375 
Q 18.3125 60.0625 18.3125 54.390625 
z
" id="DejaVuSans-56"/>
      </defs>
      <g transform="translate(375.43875 269.637812)scale(0.14 -0.14)">
       <use xlink:href="#DejaVuSans-56"/>
       <use x="63.623047" xlink:href="#DejaVuSans-48"/>
       <use x="127.246094" xlink:href="#DejaVuSans-48"/>
      </g>
     </g>
    </g>
    <g id="text_6">
     <!-- Temperatura [°C] -->
     <defs>
      <path d="M -0.296875 72.90625 
L 61.375 72.90625 
L 61.375 64.59375 
L 35.5 64.59375 
L 35.5 0 
L 25.59375 0 
L 25.59375 64.59375 
L -0.296875 64.59375 
z
" id="DejaVuSans-84"/>
      <path d="M 56.203125 29.59375 
L 56.203125 25.203125 
L 14.890625 25.203125 
Q 15.484375 15.921875 20.484375 11.0625 
Q 25.484375 6.203125 34.421875 6.203125 
Q 39.59375 6.203125 44.453125 7.46875 
Q 49.3125 8.734375 54.109375 11.28125 
L 54.109375 2.78125 
Q 49.265625 0.734375 44.1875 -0.34375 
Q 39.109375 -1.421875 33.890625 -1.421875 
Q 20.796875 -1.421875 13.15625 6.1875 
Q 5.515625 13.8125 5.515625 26.8125 
Q 5.515625 40.234375 12.765625 48.109375 
Q 20.015625 56 32.328125 56 
Q 43.359375 56 49.78125 48.890625 
Q 56.203125 41.796875 56.203125 29.59375 
z
M 47.21875 32.234375 
Q 47.125 39.59375 43.09375 43.984375 
Q 39.0625 48.390625 32.421875 48.390625 
Q 24.90625 48.390625 20.390625 44.140625 
Q 15.875 39.890625 15.1875 32.171875 
z
" id="DejaVuSans-101"/>
      <path d="M 52 44.1875 
Q 55.375 50.25 60.0625 53.125 
Q 64.75 56 71.09375 56 
Q 79.640625 56 84.28125 50.015625 
Q 88.921875 44.046875 88.921875 33.015625 
L 88.921875 0 
L 79.890625 0 
L 79.890625 32.71875 
Q 79.890625 40.578125 77.09375 44.375 
Q 74.3125 48.1875 68.609375 48.1875 
Q 61.625 48.1875 57.5625 43.546875 
Q 53.515625 38.921875 53.515625 30.90625 
L 53.515625 0 
L 44.484375 0 
L 44.484375 32.71875 
Q 44.484375 40.625 41.703125 44.40625 
Q 38.921875 48.1875 33.109375 48.1875 
Q 26.21875 48.1875 22.15625 43.53125 
Q 18.109375 38.875 18.109375 30.90625 
L 18.109375 0 
L 9.078125 0 
L 9.078125 54.6875 
L 18.109375 54.6875 
L 18.109375 46.1875 
Q 21.1875 51.21875 25.484375 53.609375 
Q 29.78125 56 35.6875 56 
Q 41.65625 56 45.828125 52.96875 
Q 50 49.953125 52 44.1875 
z
" id="DejaVuSans-109"/>
      <path d="M 18.109375 8.203125 
L 18.109375 -20.796875 
L 9.078125 -20.796875 
L 9.078125 54.6875 
L 18.109375 54.6875 
L 18.109375 46.390625 
Q 20.953125 51.265625 25.265625 53.625 
Q 29.59375 56 35.59375 56 
Q 45.5625 56 51.78125 48.09375 
Q 58.015625 40.1875 58.015625 27.296875 
Q 58.015625 14.40625 51.78125 6.484375 
Q 45.5625 -1.421875 35.59375 -1.421875 
Q 29.59375 -1.421875 25.265625 0.953125 
Q 20.953125 3.328125 18.109375 8.203125 
z
M 48.6875 27.296875 
Q 48.6875 37.203125 44.609375 42.84375 
Q 40.53125 48.484375 33.40625 48.484375 
Q 26.265625 48.484375 22.1875 42.84375 
Q 18.109375 37.203125 18.109375 27.296875 
Q 18.109375 17.390625 22.1875 11.75 
Q 26.265625 6.109375 33.40625 6.109375 
Q 40.53125 6.109375 44.609375 11.75 
Q 48.6875 17.390625 48.6875 27.296875 
z
" id="DejaVuSans-112"/>
      <path d="M 41.109375 46.296875 
Q 39.59375 47.171875 37.8125 47.578125 
Q 36.03125 48 33.890625 48 
Q 26.265625 48 22.1875 43.046875 
Q 18.109375 38.09375 18.109375 28.8125 
L 18.109375 0 
L 9.078125 0 
L 9.078125 54.6875 
L 18.109375 54.6875 
L 18.109375 46.1875 
Q 20.953125 51.171875 25.484375 53.578125 
Q 30.03125 56 36.53125 56 
Q 37.453125 56 38.578125 55.875 
Q 39.703125 55.765625 41.0625 55.515625 
z
" id="DejaVuSans-114"/>
      <path d="M 34.28125 27.484375 
Q 23.390625 27.484375 19.1875 25 
Q 14.984375 22.515625 14.984375 16.5 
Q 14.984375 11.71875 18.140625 8.90625 
Q 21.296875 6.109375 26.703125 6.109375 
Q 34.1875 6.109375 38.703125 11.40625 
Q 43.21875 16.703125 43.21875 25.484375 
L 43.21875 27.484375 
z
M 52.203125 31.203125 
L 52.203125 0 
L 43.21875 0 
L 43.21875 8.296875 
Q 40.140625 3.328125 35.546875 0.953125 
Q 30.953125 -1.421875 24.3125 -1.421875 
Q 15.921875 -1.421875 10.953125 3.296875 
Q 6 8.015625 6 15.921875 
Q 6 25.140625 12.171875 29.828125 
Q 18.359375 34.515625 30.609375 34.515625 
L 43.21875 34.515625 
L 43.21875 35.40625 
Q 43.21875 41.609375 39.140625 45 
Q 35.0625 48.390625 27.6875 48.390625 
Q 23 48.390625 18.546875 47.265625 
Q 14.109375 46.140625 10.015625 43.890625 
L 10.015625 52.203125 
Q 14.9375 54.109375 19.578125 55.046875 
Q 24.21875 56 28.609375 56 
Q 40.484375 56 46.34375 49.84375 
Q 52.203125 43.703125 52.203125 31.203125 
z
" id="DejaVuSans-97"/>
      <path d="M 18.3125 70.21875 
L 18.3125 54.6875 
L 36.8125 54.6875 
L 36.8125 47.703125 
L 18.3125 47.703125 
L 18.3125 18.015625 
Q 18.3125 11.328125 20.140625 9.421875 
Q 21.96875 7.515625 27.59375 7.515625 
L 36.8125 7.515625 
L 36.8125 0 
L 27.59375 0 
Q 17.1875 0 13.234375 3.875 
Q 9.28125 7.765625 9.28125 18.015625 
L 9.28125 47.703125 
L 2.6875 47.703125 
L 2.6875 54.6875 
L 9.28125 54.6875 
L 9.28125 70.21875 
z
" id="DejaVuSans-116"/>
      <path d="M 8.5 21.578125 
L 8.5 54.6875 
L 17.484375 54.6875 
L 17.484375 21.921875 
Q 17.484375 14.15625 20.5 10.265625 
Q 23.53125 6.390625 29.59375 6.390625 
Q 36.859375 6.390625 41.078125 11.03125 
Q 45.3125 15.671875 45.3125 23.6875 
L 45.3125 54.6875 
L 54.296875 54.6875 
L 54.296875 0 
L 45.3125 0 
L 45.3125 8.40625 
Q 42.046875 3.421875 37.71875 1 
Q 33.40625 -1.421875 27.6875 -1.421875 
Q 18.265625 -1.421875 13.375 4.4375 
Q 8.5 10.296875 8.5 21.578125 
z
M 31.109375 56 
z
" id="DejaVuSans-117"/>
      <path id="DejaVuSans-32"/>
      <path d="M 8.59375 75.984375 
L 29.296875 75.984375 
L 29.296875 69 
L 17.578125 69 
L 17.578125 -6.203125 
L 29.296875 -6.203125 
L 29.296875 -13.1875 
L 8.59375 -13.1875 
z
" id="DejaVuSans-91"/>
      <path d="M 25 67.921875 
Q 21.09375 67.921875 18.40625 65.203125 
Q 15.71875 62.5 15.71875 58.59375 
Q 15.71875 54.734375 18.40625 52.078125 
Q 21.09375 49.421875 25 49.421875 
Q 28.90625 49.421875 31.59375 52.078125 
Q 34.28125 54.734375 34.28125 58.59375 
Q 34.28125 62.453125 31.5625 65.1875 
Q 28.859375 67.921875 25 67.921875 
z
M 25 74.21875 
Q 28.125 74.21875 31 73.015625 
Q 33.890625 71.828125 35.984375 69.578125 
Q 38.234375 67.390625 39.359375 64.59375 
Q 40.484375 61.8125 40.484375 58.59375 
Q 40.484375 52.15625 35.96875 47.6875 
Q 31.453125 43.21875 24.90625 43.21875 
Q 18.3125 43.21875 13.90625 47.609375 
Q 9.515625 52 9.515625 58.59375 
Q 9.515625 65.140625 14 69.671875 
Q 18.5 74.21875 25 74.21875 
z
" id="DejaVuSans-176"/>
      <path d="M 64.40625 67.28125 
L 64.40625 56.890625 
Q 59.421875 61.53125 53.78125 63.8125 
Q 48.140625 66.109375 41.796875 66.109375 
Q 29.296875 66.109375 22.65625 58.46875 
Q 16.015625 50.828125 16.015625 36.375 
Q 16.015625 21.96875 22.65625 14.328125 
Q 29.296875 6.6875 41.796875 6.6875 
Q 48.140625 6.6875 53.78125 8.984375 
Q 59.421875 11.28125 64.40625 15.921875 
L 64.40625 5.609375 
Q 59.234375 2.09375 53.4375 0.328125 
Q 47.65625 -1.421875 41.21875 -1.421875 
Q 24.65625 -1.421875 15.125 8.703125 
Q 5.609375 18.84375 5.609375 36.375 
Q 5.609375 53.953125 15.125 64.078125 
Q 24.65625 74.21875 41.21875 74.21875 
Q 47.75 74.21875 53.53125 72.484375 
Q 59.328125 70.75 64.40625 67.28125 
z
" id="DejaVuSans-67"/>
      <path d="M 30.421875 75.984375 
L 30.421875 -13.1875 
L 9.71875 -13.1875 
L 9.71875 -6.203125 
L 21.390625 -6.203125 
L 21.390625 69 
L 9.71875 69 
L 9.71875 75.984375 
z
" id="DejaVuSans-93"/>
     </defs>
     <g transform="translate(159.676406 287.187187)scale(0.14 -0.14)">
      <use xlink:href="#DejaVuSans-84"/>
      <use x="60.818359" xlink:href="#DejaVuSans-101"/>
      <use x="122.341797" xlink:href="#DejaVuSans-109"/>
      <use x="219.753906" xlink:href="#DejaVuSans-112"/>
      <use x="283.230469" xlink:href="#DejaVuSans-101"/>
      <use x="344.753906" xlink:href="#DejaVuSans-114"/>
      <use x="385.867188" xlink:href="#DejaVuSans-97"/>
      <use x="447.146484" xlink:href="#DejaVuSans-116"/>
      <use x="486.355469" xlink:href="#DejaVuSans-117"/>
      <use x="549.734375" xlink:href="#DejaVuSans-114"/>
      <use x="590.847656" xlink:href="#DejaVuSans-97"/>
      <use x="652.126953" xlink:href="#DejaVuSans-32"/>
      <use x="683.914062" xlink:href="#DejaVuSans-91"/>
      <use x="722.927734" xlink:href="#DejaVuSans-176"/>
      <use x="772.927734" xlink:href="#DejaVuSans-67"/>
      <use x="842.751953" xlink:href="#DejaVuSans-93"/>
     </g>
    </g>
   </g>
   <g id="matplotlib.axis_2">
    <g id="ytick_1">
     <g id="line2d_11">
      <path clip-path="url(#pa47ccf754e)" d="M 54 252 
L 388.8 252 
" style="fill:none;stroke:#b0b0b0;stroke-linecap:square;stroke-width:0.8;"/>
     </g>
     <g id="line2d_12">
      <defs>
       <path d="M 0 0 
L -3.5 0 
" id="mf183e0acf6" style="stroke:#000000;stroke-width:0.8;"/>
      </defs>
      <g>
       <use style="stroke:#000000;stroke-width:0.8;" x="54" xlink:href="#mf183e0acf6" y="252"/>
      </g>
     </g>
     <g id="text_7">
      <!-- 0 -->
      <g transform="translate(38.0925 257.318906)scale(0.14 -0.14)">
       <use xlink:href="#DejaVuSans-48"/>
      </g>
     </g>
    </g>
    <g id="ytick_2">
     <g id="line2d_13">
      <path clip-path="url(#pa47ccf754e)" d="M 54 208.512 
L 388.8 208.512 
" style="fill:none;stroke:#b0b0b0;stroke-linecap:square;stroke-width:0.8;"/>
     </g>
     <g id="line2d_14">
      <g>
       <use style="stroke:#000000;stroke-width:0.8;" x="54" xlink:href="#mf183e0acf6" y="208.512"/>
      </g>
     </g>
     <g id="text_8">
      <!-- 20 -->
      <g transform="translate(29.185 213.830906)scale(0.14 -0.14)">
       <use xlink:href="#DejaVuSans-50"/>
       <use x="63.623047" xlink:href="#DejaVuSans-48"/>
      </g>
     </g>
    </g>
    <g id="ytick_3">
     <g id="line2d_15">
      <path clip-path="url(#pa47ccf754e)" d="M 54 165.024 
L 388.8 165.024 
" style="fill:none;stroke:#b0b0b0;stroke-linecap:square;stroke-width:0.8;"/>
     </g>
     <g id="line2d_16">
      <g>
       <use style="stroke:#000000;stroke-width:0.8;" x="54" xlink:href="#mf183e0acf6" y="165.024"/>
      </g>
     </g>
     <g id="text_9">
      <!-- 40 -->
      <g transform="translate(29.185 170.342906)scale(0.14 -0.14)">
       <use xlink:href="#DejaVuSans-52"/>
       <use x="63.623047" xlink:href="#DejaVuSans-48"/>
      </g>
     </g>
    </g>
    <g id="ytick_4">
     <g id="line2d_17">
      <path clip-path="url(#pa47ccf754e)" d="M 54 121.536 
L 388.8 121.536 
" style="fill:none;stroke:#b0b0b0;stroke-linecap:square;stroke-width:0.8;"/>
     </g>
     <g id="line2d_18">
      <g>
       <use style="stroke:#000000;stroke-width:0.8;" x="54" xlink:href="#mf183e0acf6" y="121.536"/>
      </g>
     </g>
     <g id="text_10">
      <!-- 60 -->
      <g transform="translate(29.185 126.854906)scale(0.14 -0.14)">
       <use xlink:href="#DejaVuSans-54"/>
       <use x="63.623047" xlink:href="#DejaVuSans-48"/>
      </g>
     </g>
    </g>
    <g id="ytick_5">
     <g id="line2d_19">
      <path clip-path="url(#pa47ccf754e)" d="M 54 78.048 
L 388.8 78.048 
" style="fill:none;stroke:#b0b0b0;stroke-linecap:square;stroke-width:0.8;"/>
     </g>
     <g id="line2d_20">
      <g>
       <use style="stroke:#000000;stroke-width:0.8;" x="54" xlink:href="#mf183e0acf6" y="78.048"/>
      </g>
     </g>
     <g id="text_11">
      <!-- 80 -->
      <g transform="translate(29.185 83.366906)scale(0.14 -0.14)">
       <use xlink:href="#DejaVuSans-56"/>
       <use x="63.623047" xlink:href="#DejaVuSans-48"/>
      </g>
     </g>
    </g>
    <g id="ytick_6">
     <g id="line2d_21">
      <path clip-path="url(#pa47ccf754e)" d="M 54 34.56 
L 388.8 34.56 
" style="fill:none;stroke:#b0b0b0;stroke-linecap:square;stroke-width:0.8;"/>
     </g>
     <g id="line2d_22">
      <g>
       <use style="stroke:#000000;stroke-width:0.8;" x="54" xlink:href="#mf183e0acf6" y="34.56"/>
      </g>
     </g>
     <g id="text_12">
      <!-- 100 -->
      <defs>
       <path d="M 12.40625 8.296875 
L 28.515625 8.296875 
L 28.515625 63.921875 
L 10.984375 60.40625 
L 10.984375 69.390625 
L 28.421875 72.90625 
L 38.28125 72.90625 
L 38.28125 8.296875 
L 54.390625 8.296875 
L 54.390625 0 
L 12.40625 0 
z
" id="DejaVuSans-49"/>
      </defs>
      <g transform="translate(20.2775 39.878906)scale(0.14 -0.14)">
       <use xlink:href="#DejaVuSans-49"/>
       <use x="63.623047" xlink:href="#DejaVuSans-48"/>
       <use x="127.246094" xlink:href="#DejaVuSans-48"/>
      </g>
     </g>
    </g>
    <g id="text_13">
     <!-- Água quimicamente ligada [kg/m³] -->
     <defs>
      <path d="M 34.1875 63.1875 
L 20.796875 26.90625 
L 47.609375 26.90625 
z
M 28.609375 72.90625 
L 39.796875 72.90625 
L 67.578125 0 
L 57.328125 0 
L 50.6875 18.703125 
L 17.828125 18.703125 
L 11.1875 0 
L 0.78125 0 
z
M 36.859375 92.734375 
L 45.90625 92.734375 
L 34.765625 79.84375 
L 27.296875 79.84375 
z
" id="DejaVuSans-193"/>
      <path d="M 45.40625 27.984375 
Q 45.40625 37.75 41.375 43.109375 
Q 37.359375 48.484375 30.078125 48.484375 
Q 22.859375 48.484375 18.828125 43.109375 
Q 14.796875 37.75 14.796875 27.984375 
Q 14.796875 18.265625 18.828125 12.890625 
Q 22.859375 7.515625 30.078125 7.515625 
Q 37.359375 7.515625 41.375 12.890625 
Q 45.40625 18.265625 45.40625 27.984375 
z
M 54.390625 6.78125 
Q 54.390625 -7.171875 48.1875 -13.984375 
Q 42 -20.796875 29.203125 -20.796875 
Q 24.46875 -20.796875 20.265625 -20.09375 
Q 16.0625 -19.390625 12.109375 -17.921875 
L 12.109375 -9.1875 
Q 16.0625 -11.328125 19.921875 -12.34375 
Q 23.78125 -13.375 27.78125 -13.375 
Q 36.625 -13.375 41.015625 -8.765625 
Q 45.40625 -4.15625 45.40625 5.171875 
L 45.40625 9.625 
Q 42.625 4.78125 38.28125 2.390625 
Q 33.9375 0 27.875 0 
Q 17.828125 0 11.671875 7.65625 
Q 5.515625 15.328125 5.515625 27.984375 
Q 5.515625 40.671875 11.671875 48.328125 
Q 17.828125 56 27.875 56 
Q 33.9375 56 38.28125 53.609375 
Q 42.625 51.21875 45.40625 46.390625 
L 45.40625 54.6875 
L 54.390625 54.6875 
z
" id="DejaVuSans-103"/>
      <path d="M 14.796875 27.296875 
Q 14.796875 17.390625 18.875 11.75 
Q 22.953125 6.109375 30.078125 6.109375 
Q 37.203125 6.109375 41.296875 11.75 
Q 45.40625 17.390625 45.40625 27.296875 
Q 45.40625 37.203125 41.296875 42.84375 
Q 37.203125 48.484375 30.078125 48.484375 
Q 22.953125 48.484375 18.875 42.84375 
Q 14.796875 37.203125 14.796875 27.296875 
z
M 45.40625 8.203125 
Q 42.578125 3.328125 38.25 0.953125 
Q 33.9375 -1.421875 27.875 -1.421875 
Q 17.96875 -1.421875 11.734375 6.484375 
Q 5.515625 14.40625 5.515625 27.296875 
Q 5.515625 40.1875 11.734375 48.09375 
Q 17.96875 56 27.875 56 
Q 33.9375 56 38.25 53.625 
Q 42.578125 51.265625 45.40625 46.390625 
L 45.40625 54.6875 
L 54.390625 54.6875 
L 54.390625 -20.796875 
L 45.40625 -20.796875 
z
" id="DejaVuSans-113"/>
      <path d="M 9.421875 54.6875 
L 18.40625 54.6875 
L 18.40625 0 
L 9.421875 0 
z
M 9.421875 75.984375 
L 18.40625 75.984375 
L 18.40625 64.59375 
L 9.421875 64.59375 
z
" id="DejaVuSans-105"/>
      <path d="M 48.78125 52.59375 
L 48.78125 44.1875 
Q 44.96875 46.296875 41.140625 47.34375 
Q 37.3125 48.390625 33.40625 48.390625 
Q 24.65625 48.390625 19.8125 42.84375 
Q 14.984375 37.3125 14.984375 27.296875 
Q 14.984375 17.28125 19.8125 11.734375 
Q 24.65625 6.203125 33.40625 6.203125 
Q 37.3125 6.203125 41.140625 7.25 
Q 44.96875 8.296875 48.78125 10.40625 
L 48.78125 2.09375 
Q 45.015625 0.34375 40.984375 -0.53125 
Q 36.96875 -1.421875 32.421875 -1.421875 
Q 20.0625 -1.421875 12.78125 6.34375 
Q 5.515625 14.109375 5.515625 27.296875 
Q 5.515625 40.671875 12.859375 48.328125 
Q 20.21875 56 33.015625 56 
Q 37.15625 56 41.109375 55.140625 
Q 45.0625 54.296875 48.78125 52.59375 
z
" id="DejaVuSans-99"/>
      <path d="M 54.890625 33.015625 
L 54.890625 0 
L 45.90625 0 
L 45.90625 32.71875 
Q 45.90625 40.484375 42.875 44.328125 
Q 39.84375 48.1875 33.796875 48.1875 
Q 26.515625 48.1875 22.3125 43.546875 
Q 18.109375 38.921875 18.109375 30.90625 
L 18.109375 0 
L 9.078125 0 
L 9.078125 54.6875 
L 18.109375 54.6875 
L 18.109375 46.1875 
Q 21.34375 51.125 25.703125 53.5625 
Q 30.078125 56 35.796875 56 
Q 45.21875 56 50.046875 50.171875 
Q 54.890625 44.34375 54.890625 33.015625 
z
" id="DejaVuSans-110"/>
      <path d="M 9.421875 75.984375 
L 18.40625 75.984375 
L 18.40625 0 
L 9.421875 0 
z
" id="DejaVuSans-108"/>
      <path d="M 45.40625 46.390625 
L 45.40625 75.984375 
L 54.390625 75.984375 
L 54.390625 0 
L 45.40625 0 
L 45.40625 8.203125 
Q 42.578125 3.328125 38.25 0.953125 
Q 33.9375 -1.421875 27.875 -1.421875 
Q 17.96875 -1.421875 11.734375 6.484375 
Q 5.515625 14.40625 5.515625 27.296875 
Q 5.515625 40.1875 11.734375 48.09375 
Q 17.96875 56 27.875 56 
Q 33.9375 56 38.25 53.625 
Q 42.578125 51.265625 45.40625 46.390625 
z
M 14.796875 27.296875 
Q 14.796875 17.390625 18.875 11.75 
Q 22.953125 6.109375 30.078125 6.109375 
Q 37.203125 6.109375 41.296875 11.75 
Q 45.40625 17.390625 45.40625 27.296875 
Q 45.40625 37.203125 41.296875 42.84375 
Q 37.203125 48.484375 30.078125 48.484375 
Q 22.953125 48.484375 18.875 42.84375 
Q 14.796875 37.203125 14.796875 27.296875 
z
" id="DejaVuSans-100"/>
      <path d="M 9.078125 75.984375 
L 18.109375 75.984375 
L 18.109375 31.109375 
L 44.921875 54.6875 
L 56.390625 54.6875 
L 27.390625 29.109375 
L 57.625 0 
L 45.90625 0 
L 18.109375 26.703125 
L 18.109375 0 
L 9.078125 0 
z
" id="DejaVuSans-107"/>
      <path d="M 25.390625 72.90625 
L 33.6875 72.90625 
L 8.296875 -9.28125 
L 0 -9.28125 
z
" id="DejaVuSans-47"/>
      <path d="M 25.59375 54.6875 
Q 30.078125 53.8125 32.546875 51.140625 
Q 35.015625 48.484375 35.015625 44.484375 
Q 35.015625 38.421875 30.375 35.15625 
Q 25.734375 31.890625 17.09375 31.890625 
Q 14.3125 31.890625 11.25 32.390625 
Q 8.203125 32.90625 4.78125 33.890625 
L 4.78125 39.796875 
Q 7.328125 38.484375 10.234375 37.84375 
Q 13.140625 37.203125 16.40625 37.203125 
Q 21.734375 37.203125 24.65625 39.125 
Q 27.59375 41.0625 27.59375 44.484375 
Q 27.59375 48.09375 24.875 49.953125 
Q 22.171875 51.8125 16.890625 51.8125 
L 12.703125 51.8125 
L 12.703125 57.078125 
L 17.28125 57.078125 
Q 21.875 57.078125 24.234375 58.609375 
Q 26.609375 60.15625 26.609375 63.09375 
Q 26.609375 65.921875 24.171875 67.40625 
Q 21.734375 68.890625 17.09375 68.890625 
Q 15.140625 68.890625 12.640625 68.453125 
Q 10.15625 68.015625 6.203125 66.890625 
L 6.203125 72.515625 
Q 9.765625 73.34375 12.890625 73.78125 
Q 16.015625 74.21875 18.703125 74.21875 
Q 25.734375 74.21875 29.859375 71.328125 
Q 33.984375 68.453125 33.984375 63.625 
Q 33.984375 60.25 31.78125 57.90625 
Q 29.59375 55.5625 25.59375 54.6875 
z
" id="DejaVuSans-179"/>
     </defs>
     <g transform="translate(13.365937 265.551406)rotate(-90)scale(0.14 -0.14)">
      <use xlink:href="#DejaVuSans-193"/>
      <use x="68.408203" xlink:href="#DejaVuSans-103"/>
      <use x="131.884766" xlink:href="#DejaVuSans-117"/>
      <use x="195.263672" xlink:href="#DejaVuSans-97"/>
      <use x="256.542969" xlink:href="#DejaVuSans-32"/>
      <use x="288.330078" xlink:href="#DejaVuSans-113"/>
      <use x="351.806641" xlink:href="#DejaVuSans-117"/>
      <use x="415.185547" xlink:href="#DejaVuSans-105"/>
      <use x="442.96875" xlink:href="#DejaVuSans-109"/>
      <use x="540.380859" xlink:href="#DejaVuSans-105"/>
      <use x="568.164062" xlink:href="#DejaVuSans-99"/>
      <use x="623.144531" xlink:href="#DejaVuSans-97"/>
      <use x="684.423828" xlink:href="#DejaVuSans-109"/>
      <use x="781.835938" xlink:href="#DejaVuSans-101"/>
      <use x="843.359375" xlink:href="#DejaVuSans-110"/>
      <use x="906.738281" xlink:href="#DejaVuSans-116"/>
      <use x="945.947266" xlink:href="#DejaVuSans-101"/>
      <use x="1007.470703" xlink:href="#DejaVuSans-32"/>
      <use x="1039.257812" xlink:href="#DejaVuSans-108"/>
      <use x="1067.041016" xlink:href="#DejaVuSans-105"/>
      <use x="1094.824219" xlink:href="#DejaVuSans-103"/>
      <use x="1158.300781" xlink:href="#DejaVuSans-97"/>
      <use x="1219.580078" xlink:href="#DejaVuSans-100"/>
      <use x="1283.056641" xlink:href="#DejaVuSans-97"/>
      <use x="1344.335938" xlink:href="#DejaVuSans-32"/>
      <use x="1376.123047" xlink:href="#DejaVuSans-91"/>
      <use x="1415.136719" xlink:href="#DejaVuSans-107"/>
      <use x="1473.046875" xlink:href="#DejaVuSans-103"/>
      <use x="1536.523438" xlink:href="#DejaVuSans-47"/>
      <use x="1570.214844" xlink:href="#DejaVuSans-109"/>
      <use x="1667.626953" xlink:href="#DejaVuSans-179"/>
      <use x="1707.714844" xlink:href="#DejaVuSans-93"/>
     </g>
    </g>
   </g>
   <g id="line2d_23">
    <path clip-path="url(#pa47ccf754e)" d="M 68.425695 98.911251 
L 68.63076 98.977696 
L 68.96556 98.933399 
L 69.42591 98.999844 
L 69.756525 98.999844 
L 72.769725 99.088437 
L 72.903645 99.088437 
L 73.204965 99.154882 
L 73.347255 99.154882 
L 73.531395 99.17703 
L 73.682055 99.154882 
L 73.882935 99.199178 
L 74.76597 99.309919 
L 74.93337 99.354216 
L 74.937555 99.332068 
L 76.988205 99.442809 
L 77.21838 99.442809 
L 79.741935 99.55355 
L 80.18136 99.597847 
L 82.78443 99.708588 
L 83.0439 99.730736 
L 85.006665 99.819329 
L 85.15314 99.841478 
L 87.584625 99.952219 
L 87.919425 99.974367 
L 90.21699 100.085108 
L 90.664785 100.129405 
L 92.866095 100.240146 
L 93.21345 100.262295 
L 95.28084 100.350888 
L 95.511015 100.395184 
L 95.90859 100.439481 
L 98.12664 100.550222 
L 98.482365 100.594518 
L 98.716725 100.594518 
L 98.875755 100.616667 
L 100.59579 100.727408 
L 101.093805 100.793853 
L 101.4579 100.771704 
L 102.792915 100.882446 
L 103.077495 100.904594 
L 104.182335 100.993187 
L 104.349735 101.015335 
L 106.241355 101.126077 
L 106.760295 101.192521 
L 108.81513 101.303263 
L 109.25037 101.347559 
L 110.920185 101.4583 
L 111.19221 101.502597 
L 113.12568 101.613338 
L 113.56092 101.657635 
L 115.339545 101.768376 
L 115.75386 101.812672 
L 116.034255 101.790524 
L 116.360685 101.856969 
L 118.32345 101.945562 
L 118.52433 101.989859 
L 120.035115 102.1006 
L 120.445245 102.144896 
L 121.97277 102.255638 
L 122.49171 102.344231 
L 122.76792 102.322082 
L 122.972985 102.388527 
L 123.265935 102.388527 
L 124.40007 102.499268 
L 124.8102 102.521417 
L 125.701605 102.61001 
L 125.852265 102.654306 
L 126.128475 102.676454 
L 127.224945 102.787196 
L 127.41327 102.831492 
L 127.543005 102.809344 
L 128.23353 102.920085 
L 129.191895 103.008678 
L 129.43881 103.075123 
L 130.28418 103.163716 
L 130.547835 103.230161 
L 131.451795 103.340902 
L 132.246945 103.473792 
L 132.556635 103.518088 
L 132.975135 103.562385 
L 133.52337 103.650978 
L 133.728435 103.673126 
L 134.540325 103.806016 
L 134.94627 103.894609 
L 135.18063 103.961053 
L 135.536355 104.049646 
L 136.42776 104.160388 
L 136.783485 104.293277 
L 137.277315 104.404018 
L 140.164965 105.112763 
L 140.524875 105.223504 
L 143.831025 106.242324 
L 144.324855 106.463806 
L 144.601065 106.552399 
L 145.09071 106.751734 
L 146.258325 107.172551 
L 146.534535 107.327588 
L 147.17484 107.615516 
L 148.54752 108.346408 
L 148.719105 108.390705 
L 149.154345 108.70078 
L 149.438925 108.789373 
L 149.982975 109.298783 
L 150.15456 109.365228 
L 150.518655 109.697452 
L 150.69861 109.85249 
L 151.807635 110.982051 
L 152.53164 112.26665 
L 152.686485 112.576725 
L 153.62811 115.655333 
L 154.092645 118.047345 
L 156.009375 128.235543 
L 156.863115 131.136964 
L 157.21047 132.266525 
L 157.281615 132.643046 
L 157.834035 134.082682 
L 158.44923 135.367281 
L 158.737995 135.76595 
L 160.96023 139.154633 
L 164.6514 142.941985 
L 164.965275 143.141319 
L 165.2373 143.429246 
L 165.743685 143.827915 
L 167.032665 144.91318 
L 167.200065 145.046069 
L 167.635305 145.42259 
L 167.961735 145.732665 
L 168.63552 146.352816 
L 168.790365 146.463558 
L 169.28838 146.906523 
L 169.85754 147.349488 
L 170.4267 147.792453 
L 171.870525 149.121348 
L 172.34343 149.586462 
L 173.62404 150.716023 
L 173.929545 151.026098 
L 174.247605 151.291878 
L 174.79584 151.956325 
L 175.21434 152.310697 
L 176.202 153.285221 
L 177.50772 154.747006 
L 177.603975 154.94634 
L 177.85089 155.123526 
L 178.75485 156.275235 
L 178.926435 156.430273 
L 179.28216 156.762497 
L 179.964315 157.426945 
L 180.474885 158.069244 
L 180.859905 158.556506 
L 181.33281 159.243102 
L 181.86012 159.841105 
L 182.676195 161.014962 
L 183.094695 161.347186 
L 183.26628 161.54652 
L 184.425525 162.897564 
L 185.26671 164.115718 
L 185.87772 164.647276 
L 186.183225 165.045945 
L 186.459435 165.35602 
L 187.756785 167.194326 
L 187.99533 167.437957 
L 190.02087 169.94071 
L 191.012715 170.738047 
L 191.715795 171.779015 
L 192.033855 172.377018 
L 192.485835 172.775686 
L 193.147065 173.506579 
L 193.48605 174.082434 
L 195.6204 176.740224 
L 195.92172 177.161041 
L 196.687575 178.091268 
L 197.039115 178.44564 
L 198.47457 180.173204 
L 198.79263 180.638317 
L 199.114875 180.904097 
L 201.26178 183.716925 
L 202.42521 185.023672 
L 202.5675 185.55523 
L 202.87719 186.153233 
L 203.30406 186.551902 
L 203.78115 187.127757 
L 204.06573 187.548574 
L 204.563745 188.146576 
L 205.89876 189.719103 
L 206.09127 190.095623 
L 206.73576 191.180888 
L 207.250515 191.845335 
L 207.844785 193.085638 
L 208.757115 194.503126 
L 209.04588 195.123277 
L 209.912175 196.430024 
L 210.146535 197.11662 
L 210.44367 197.781068 
L 210.9375 198.401219 
L 211.46481 199.043519 
L 213.712155 202.565091 
L 214.23528 203.09665 
L 214.867215 204.049025 
L 215.14761 204.3591 
L 215.7084 204.890658 
L 215.972055 205.067844 
L 216.557955 205.643699 
L 217.202445 206.507481 
L 217.378215 206.529629 
L 218.24451 207.326967 
L 218.43702 207.969266 
L 218.6379 208.146452 
L 218.91411 208.367935 
L 219.135915 208.655862 
L 219.186135 209.054531 
L 219.738555 209.408903 
L 220.62159 210.228388 
L 220.92291 210.494167 
L 222.78105 211.468691 
L 223.29162 211.623728 
L 223.40043 211.756618 
L 223.530165 211.867359 
L 225.045135 212.598252 
L 225.00747 212.642548 
L 227.187855 213.727813 
L 227.48499 213.860702 
L 227.63565 214.082185 
L 228.635865 214.52515 
L 228.58146 214.635891 
L 228.669345 214.658039 
L 230.71581 215.189598 
L 230.91669 215.388932 
L 230.887395 215.41108 
L 230.971095 215.455377 
L 231.280785 215.54397 
L 232.52373 215.809749 
L 232.720425 215.986935 
L 232.703685 216.097676 
L 233.272845 216.208417 
L 238.20696 217.714499 
L 238.336695 217.758795 
L 238.39947 217.82524 
L 238.42458 217.82524 
L 238.74264 217.935981 
L 239.324355 218.091019 
L 239.47083 218.157464 
L 239.734485 218.223909 
L 240.705405 218.644726 
L 240.914655 218.71117 
L 240.9021 218.733319 
L 240.97743 218.733319 
L 242.16597 219.065543 
L 242.555175 219.22058 
L 242.689095 220.593772 
L 243.15363 220.682365 
L 243.42147 220.793107 
L 243.75627 220.903848 
L 245.86551 221.413258 
L 246.263085 221.501851 
L 246.422115 221.501851 
L 248.096115 222.210595 
L 248.740605 222.27704 
L 248.91219 222.675708 
L 249.167475 222.720005 
L 250.01703 222.985784 
L 250.372755 223.16297 
L 251.95887 223.694528 
L 251.954685 223.805269 
L 251.979795 223.783121 
L 252.473625 224.0489 
L 252.624285 224.801941 
L 252.624285 224.779793 
L 253.109745 224.890534 
L 254.50335 225.244906 
L 255.18969 225.422092 
L 255.26502 225.488537 
L 255.696075 225.599278 
L 257.269635 226.042243 
L 257.152455 226.152985 
L 257.077125 226.152985 
L 257.42448 226.263726 
L 258.399585 226.59595 
L 258.86412 226.706691 
L 258.93945 226.728839 
L 260.031735 226.928174 
L 260.2368 226.97247 
L 260.090325 227.061063 
L 259.91874 227.149656 
L 260.00244 227.149656 
L 260.31213 227.216101 
L 260.99847 227.371139 
L 260.944065 227.393287 
L 260.52975 227.526177 
L 260.77248 227.592621 
L 261.714105 227.836252 
L 261.67644 227.880549 
L 261.688995 227.924845 
L 262.726875 228.146328 
L 262.634805 228.190624 
L 262.73106 228.234921 
L 263.304405 228.389959 
L 264.275325 228.788627 
L 264.81519 228.965813 
L 265.35924 229.142999 
L 265.313205 229.142999 
L 265.304835 229.253741 
L 265.555935 229.253741 
L 266.36364 229.541668 
L 267.03324 229.984633 
L 267.30108 230.139671 
L 267.27597 230.228264 
L 267.34293 230.228264 
L 267.581475 230.27256 
L 268.117155 230.471895 
L 268.108785 230.471895 
L 268.07949 230.516191 
L 268.15482 230.560488 
L 268.74072 230.804119 
L 269.63631 230.91486 
L 269.87067 231.025601 
L 269.757675 231.158491 
L 270.293355 231.269232 
L 271.381455 231.535011 
L 271.373085 231.579307 
L 271.25172 231.579307 
L 271.322865 231.667901 
L 272.143125 231.955828 
L 272.42352 232.17731 
L 272.35656 232.288052 
L 272.327265 232.376645 
L 272.33982 232.376645 
L 272.569995 232.487386 
L 273.021975 232.598127 
L 273.25215 232.731017 
L 273.457215 232.908203 
L 274.23981 233.085389 
L 274.56624 233.218278 
L 274.913595 233.32902 
L 275.934735 233.816281 
L 275.758965 233.904874 
L 275.784075 233.927023 
L 275.91381 234.170653 
L 275.851035 234.192802 
L 275.81337 234.281395 
L 275.909625 234.303543 
L 277.40367 234.569322 
L 277.54596 234.635767 
L 277.46226 234.635767 
L 277.35345 234.746508 
L 277.3953 234.768656 
L 277.993755 235.078732 
L 278.45829 235.189473 
L 278.89353 235.255918 
L 278.981415 235.366659 
L 278.94375 235.366659 
L 278.931195 235.521697 
L 279.475245 235.632438 
L 280.22436 235.809624 
L 280.4922 236.053255 
L 280.61775 236.141848 
L 281.249685 236.25259 
L 281.88999 236.474072 
L 281.877435 236.49622 
L 281.994615 236.673406 
L 282.1662 236.717703 
L 282.31686 236.828444 
L 282.54285 236.983482 
L 282.530295 237.00563 
L 282.5847 237.027779 
L 285.04548 238.002302 
L 285.752745 238.135191 
L 285.74019 238.201636 
L 286.137765 238.378822 
L 286.02477 238.423119 
L 285.895035 238.53386 
L 285.92433 238.53386 
L 286.23402 238.622453 
L 286.81992 238.755343 
L 286.79481 238.843936 
L 287.167275 238.932529 
L 288.75339 239.198308 
L 288.975195 239.286901 
L 289.385325 239.397642 
L 289.452285 239.55268 
L 289.912635 239.663421 
L 290.398095 239.840607 
L 290.347875 239.884904 
L 290.749635 239.907052 
L 291.419235 240.172831 
L 295.512165 240.970168 
L 296.16084 241.08091 
L 296.123175 241.125206 
L 296.508195 241.169503 
L 296.75511 241.191651 
L 297.161055 241.302392 
L 297.10665 241.32454 
L 297.713475 241.413133 
L 298.240785 241.479578 
L 298.11105 241.523875 
L 298.34541 241.612468 
L 299.41677 241.723209 
L 301.279095 241.988988 
L 301.429755 242.033285 
L 301.72689 242.055433 
L 302.316975 242.121878 
L 302.191425 242.166174 
L 302.183055 242.210471 
L 302.199795 242.144026 
L 302.2542 242.166174 
L 303.45111 242.210471 
L 303.30045 242.276915 
L 304.225335 242.365508 
L 304.38855 242.387657 
L 304.585245 242.431953 
L 305.50176 242.47625 
L 305.480835 242.542694 
L 306.25506 242.564843 
L 306.54801 242.609139 
L 306.91629 242.653436 
L 307.816065 242.742029 
L 307.77003 242.742029 
L 307.874655 242.764177 
L 308.711655 242.85277 
L 310.034115 242.963511 
L 310.31451 242.98566 
L 311.01759 242.98566 
L 311.289615 243.074253 
L 312.03036 243.052104 
L 312.268905 243.140697 
L 312.595335 243.074253 
L 312.86736 243.140697 
L 313.792245 243.251439 
L 315.365805 243.340032 
L 315.390915 243.295735 
L 315.382545 243.36218 
L 315.41184 243.340032 
L 315.692235 243.384328 
L 316.63386 243.495069 
L 316.61712 243.539366 
L 316.67571 243.495069 
L 317.29509 243.472921 
L 319.46292 243.716552 
L 319.349925 243.760849 
L 319.559175 243.782997 
L 321.87348 243.849442 
L 322.003215 243.915886 
L 322.338015 243.915886 
L 322.781625 243.960183 
L 325.292625 244.048776 
L 325.100115 244.093072 
L 325.3554 244.093072 
L 325.568835 244.159517 
L 325.6902 244.181665 
L 326.29284 244.181665 
L 326.556495 244.203814 
L 326.882925 244.24811 
L 326.958255 244.24811 
L 326.862 244.270258 
L 327.510675 244.314555 
L 327.48975 244.336703 
L 327.6153 244.336703 
L 329.100975 244.447445 
L 329.008905 244.425296 
L 328.975425 244.469593 
L 329.067495 244.469593 
L 329.544585 244.469593 
L 329.544585 244.469593 
L 329.69106 244.513889 
L 330.43599 244.558186 
L 331.335765 244.646779 
L 331.75845 244.691075 
L 333.126945 244.801817 
L 333.24831 244.868261 
L 335.386845 244.979003 
L 335.771865 245.001151 
L 336.99807 245.089744 
L 337.2408 245.045447 
L 337.404015 245.13404 
L 337.789035 245.13404 
L 338.592555 245.222634 
L 338.885505 245.311227 
L 339.228675 245.26693 
L 340.785495 245.377671 
L 341.053335 245.444116 
L 341.30862 245.466264 
L 341.538795 245.510561 
L 343.38438 245.599154 
L 343.39275 245.665599 
L 343.790325 245.665599 
L 347.04207 245.975674 
L 346.970925 245.953526 
L 347.640525 246.064267 
L 349.214085 246.175009 
L 348.98391 246.197157 
L 349.599105 246.241453 
L 349.816725 246.241453 
L 350.201745 246.175009 
L 350.159895 246.241453 
L 350.28963 246.241453 
L 351.448875 246.352195 
L 351.415395 246.374343 
L 351.58698 246.396491 
L 352.29843 246.396491 
L 352.319355 246.485084 
L 352.369575 246.440788 
L 352.88433 246.529381 
L 354.269565 246.617974 
L 354.403485 246.640122 
L 354.838725 246.640122 
L 354.788505 246.66227 
L 355.28652 246.684418 
L 355.148415 246.66227 
L 355.985415 246.750863 
L 356.186295 246.839456 
L 356.26581 246.883753 
L 356.4918 246.839456 
L 357.341355 246.905901 
L 357.43761 246.905901 
L 357.441795 246.972346 
L 357.466905 246.994494 
L 357.32043 246.994494 
L 359.199495 247.105235 
L 359.316675 247.105235 
L 359.592885 247.149532 
L 361.14552 247.215977 
L 361.024155 247.260273 
L 360.81072 247.260273 
L 361.13715 247.238125 
L 361.451025 247.371014 
L 361.62261 247.348866 
L 363.39705 247.437459 
L 363.09573 247.481756 
L 363.702555 247.503904 
L 364.087575 247.5482 
L 364.480965 247.526052 
L 364.61907 247.570349 
L 364.832505 247.614645 
L 365.359815 247.658942 
L 365.502105 247.703238 
L 365.75739 247.68109 
L 365.945715 247.725386 
L 366.15078 247.703238 
L 370.992825 248.212648 
L 371.536875 248.345538 
L 371.90934 248.389834 
L 372.43665 248.389834 
L 372.114405 248.434131 
L 372.82167 248.456279 
L 373.127175 248.478427 
L 374.17761 248.633465 
L 374.21109 248.677762 
L 373.830255 248.655613 
L 376.960635 248.832799 
L 376.72209 248.921392 
L 376.56306 248.987837 
L 377.295435 249.032134 
L 377.471205 248.965689 
L 378.584415 249.142875 
L 378.735075 249.165023 
L 379.078245 249.165023 
L 380.04498 249.275764 
L 380.434185 249.342209 
L 381.572505 249.45295 
L 380.95731 249.45295 
L 381.15819 249.475099 
L 380.52207 249.430802 
L 382.40532 249.58584 
L 382.124925 249.652285 
L 382.47228 249.696581 
L 383.20047 249.740878 
L 383.422275 249.851619 
L 383.45157 249.807323 
L 383.505975 249.895916 
L 383.87007 249.873767 
L 383.72778 249.96236 
L 384.24672 250.028805 
L 383.907735 250.073102 
L 383.999805 250.161695 
L 384.041655 250.117398 
L 383.263245 250.117398 
L 384.17976 250.205991 
L 383.98725 250.205991 
L 384.024915 250.272436 
L 384.736365 250.272436 
L 384.10443 250.361029 
L 384.083505 250.405326 
L 384.066765 250.383177 
L 383.24232 250.427474 
L 384.10443 250.47177 
L 384.125355 250.493919 
L 383.43483 250.493919 
L 384.13791 250.493919 
L 384.03747 250.60466 
L 384.033285 250.648956 
L 384.0291 250.626808 
L 384.2802 250.60466 
L 383.1921 250.693253 
L 384.09606 250.693253 
L 384.12117 250.781846 
L 384.116985 250.715401 
L 383.439015 250.715401 
L 384.945615 250.759698 
L 384.794955 250.826142 
L 383.70267 250.936884 
L 384.16302 250.959032 
L 384.1128 250.936884 
L 384.050025 251.136218 
L 383.388795 251.158366 
L 384.07932 251.224811 
L 384.08769 251.246959 
L 384.08769 251.246959 
" style="fill:none;stroke:#000000;stroke-linecap:square;stroke-width:1.5;"/>
   </g>
   <g id="line2d_24">
    <path clip-path="url(#pa47ccf754e)" d="M 66.860505 102.277786 
L 67.119975 102.255638 
L 89.417655 102.366379 
L 89.70642 102.366379 
L 89.98263 102.344231 
L 90.422055 102.388527 
L 94.14252 102.499268 
L 95.02137 102.543565 
L 100.06011 102.654306 
L 100.943145 102.676454 
L 102.156795 102.742899 
L 105.680565 102.853641 
L 106.94025 102.942234 
L 107.563815 102.942234 
L 108.191565 102.942234 
L 110.40543 103.052975 
L 110.88252 103.075123 
L 112.309605 103.163716 
L 114.71598 103.274457 
L 115.00893 103.318754 
L 115.31025 103.296606 
L 115.774785 103.296606 
L 117.36927 103.385199 
L 118.03887 103.451643 
L 120.49965 103.540236 
L 120.997665 103.562385 
L 122.336865 103.673126 
L 122.671665 103.650978 
L 124.51725 103.761719 
L 125.500725 103.783867 
L 127.902915 104.00535 
L 128.5767 103.983202 
L 130.146075 104.093943 
L 131.142105 104.204684 
L 132.330645 104.271129 
L 133.393635 104.38187 
L 134.28504 104.492612 
L 138.398895 104.935577 
L 139.110345 104.979873 
L 139.461885 105.068466 
L 144.174195 105.77721 
L 144.73917 105.887952 
L 145.856565 106.109434 
L 153.975465 108.169222 
L 154.74132 108.457149 
L 155.155635 108.501446 
L 155.590875 108.70078 
L 156.67479 109.077301 
L 158.252535 109.763897 
L 159.608475 110.384048 
L 160.16508 110.73842 
L 160.34922 110.760568 
L 161.039745 111.24783 
L 162.66771 112.532429 
L 163.148985 113.130432 
L 165.42981 116.96208 
L 167.43024 121.945438 
L 169.167015 126.707313 
L 170.85357 131.380595 
L 173.12184 136.452546 
L 175.084605 140.018415 
L 178.708815 145.489034 
L 181.44999 148.877718 
L 181.84338 149.320683 
L 186.39666 153.639593 
L 187.26714 154.348337 
L 188.99973 155.854418 
L 191.531655 157.936355 
L 192.326805 158.667247 
L 197.8803 163.694901 
L 199.675665 165.466762 
L 200.29923 166.109061 
L 200.93535 166.684916 
L 202.647015 168.567518 
L 205.82343 171.889756 
L 206.857125 172.886428 
L 210.079575 176.208666 
L 210.280455 176.341556 
L 210.86217 176.983855 
L 211.778685 177.980527 
L 212.47758 178.777864 
L 216.50355 183.296108 
L 220.11102 187.747908 
L 226.10394 196.164245 
L 226.99953 197.338103 
L 232.58232 204.846362 
L 235.98054 208.744455 
L 236.19816 208.921641 
L 236.277675 209.143124 
L 238.269735 210.782095 
L 238.98537 211.424394 
L 242.597025 213.816406 
L 244.070145 214.547298 
L 244.388205 214.768781 
L 244.76067 214.990263 
L 245.94084 215.632563 
L 247.22982 216.119824 
L 247.744575 216.407752 
L 249.63201 217.205089 
L 253.28133 218.666874 
L 254.1267 218.932653 
L 254.97207 219.309173 
L 257.12316 220.150807 
L 259.17381 220.970293 
L 259.479315 221.169627 
L 261.253755 221.856223 
L 261.60111 222.033409 
L 262.074015 222.232743 
L 262.84824 222.542819 
L 264.342285 223.118673 
L 265.572675 223.716676 
L 266.07069 223.938159 
L 268.117155 224.6912 
L 268.64865 224.934831 
L 271.707885 226.197281 
L 273.139155 226.706691 
L 274.679235 227.149656 
L 275.800815 227.548325 
L 276.16491 227.769807 
L 281.53008 229.718854 
L 283.543065 230.78197 
L 284.81112 231.379973 
L 286.46001 231.93368 
L 287.167275 232.199459 
L 288.62784 232.797462 
L 288.941715 233.107537 
L 289.17189 233.284723 
L 289.98378 233.70554 
L 290.665935 233.927023 
L 294.77142 236.186145 
L 295.09785 236.407627 
L 297.361935 237.293558 
L 297.839025 237.470744 
L 300.915 238.998973 
L 301.3335 239.353346 
L 304.375995 240.593648 
L 305.363655 240.903723 
L 307.288755 241.612468 
L 308.368485 241.900395 
L 309.05064 242.099729 
L 311.75415 242.786325 
L 313.030575 243.029956 
L 313.390485 243.140697 
L 315.86382 243.517218 
L 316.587825 243.716552 
L 317.02725 243.7387 
L 318.219975 243.960183 
L 318.58407 244.004479 
L 319.47129 244.093072 
L 320.12415 244.159517 
L 326.89548 244.868261 
L 327.360015 244.846113 
L 332.91351 245.333375 
L 333.394785 245.355523 
L 335.70909 245.532709 
L 336.868335 245.621302 
L 337.203135 245.64345 
L 337.52538 245.665599 
L 338.148945 245.64345 
L 338.550705 245.754192 
L 340.47999 245.864933 
L 341.76897 245.975674 
L 342.944955 246.042119 
L 343.229535 246.108564 
L 345.21741 246.197157 
L 345.76983 246.219305 
L 346.066965 246.28575 
L 347.8707 246.396491 
L 349.758135 246.529381 
L 350.477955 246.529381 
L 350.89227 246.595825 
L 353.05173 246.684418 
L 356.0733 246.950198 
L 356.429025 246.905901 
L 356.87682 246.950198 
L 357.994215 247.016642 
L 358.571745 247.060939 
L 360.68517 247.193828 
L 362.36754 247.282421 
L 363.384495 247.393163 
L 364.941315 247.459607 
L 365.29704 247.503904 
L 367.393725 247.614645 
L 367.787115 247.68109 
L 369.636885 247.769683 
L 370.565955 247.880424 
L 372.089295 247.991166 
L 373.754925 248.079759 
L 374.52915 248.1905 
L 376.17804 248.323389 
L 376.341255 248.279093 
L 376.659315 248.367686 
L 377.245215 248.434131 
L 378.13662 248.522724 
L 378.54675 248.500575 
L 378.802035 248.56702 
L 379.346085 248.589168 
L 380.03661 248.69991 
L 381.271185 248.810651 
L 382.33836 248.899244 
L 383.246505 249.009985 
L 383.631525 249.07643 
L 383.87844 249.054282 
L 384.602445 249.20932 
L 384.70707 249.231468 
L 385.439445 249.541544 
L 385.380855 249.497247 
L 386.05464 249.563692 
L 385.3683 249.58584 
L 385.255305 249.607988 
L 385.372485 249.674433 
L 385.41852 249.740878 
L 385.29297 249.740878 
L 384.67359 249.785174 
L 385.104645 249.851619 
L 385.129755 249.96236 
L 385.15905 249.940212 
L 385.19253 249.984509 
L 385.16742 249.918064 
L 385.154865 249.96236 
L 384.48945 250.028805 
L 384.786585 250.09525 
L 384.75729 250.139546 
L 384.77403 250.073102 
L 384.761475 250.139546 
L 383.96214 250.183843 
L 384.552225 250.228139 
L 384.460155 250.294584 
L 384.85773 250.316733 
L 384.48945 250.405326 
L 384.334605 250.427474 
L 383.706855 250.47177 
L 384.39738 250.47177 
L 384.38901 250.516067 
L 384.21324 250.626808 
L 384.9498 250.582512 
L 384.200685 250.693253 
L 384.21324 250.671105 
L 384.242535 250.959032 
L 384.08769 250.98118 
L 383.246505 250.914735 
L 384.73218 250.98118 
L 383.29254 251.069773 
L 383.85333 251.202663 
L 383.715225 251.202663 
L 383.731965 251.313404 
L 383.782185 251.180515 
L 383.765445 251.313404 
L 384.64848 251.357701 
L 384.64848 251.357701 
" style="fill:none;stroke:#0000ff;stroke-linecap:square;stroke-width:1.5;"/>
   </g>
   <g id="line2d_25">
    <path clip-path="url(#pa47ccf754e)" d="M 73.01664 96.785018 
L 73.389105 96.807167 
L 73.531395 96.807167 
L 75.12588 96.718573 
L 75.356055 96.740722 
L 75.62808 96.674277 
L 75.967065 96.718573 
L 76.586445 96.674277 
L 77.88798 96.652129 
L 102.28653 96.740722 
L 104.37903 96.785018 
L 111.857625 96.89576 
L 120.52476 97.095094 
L 126.329355 97.205835 
L 132.062805 97.316576 
L 133.94187 97.316576 
L 135.820935 97.427318 
L 140.960115 97.515911 
L 142.885215 97.604504 
L 178.976655 98.933399 
L 180.433035 98.999844 
L 184.785435 99.309919 
L 186.911415 99.354216 
L 189.03321 99.597847 
L 192.59046 99.907922 
L 200.24901 100.904594 
L 205.568145 102.189193 
L 208.849185 103.318754 
L 212.004675 105.068466 
L 212.632425 105.555728 
L 213.87537 106.995365 
L 215.126685 108.855818 
L 216.36126 111.159237 
L 217.58328 113.861324 
L 222.78105 126.175755 
L 224.46342 129.475845 
L 227.71935 135.411578 
L 235.90521 149.187793 
L 238.412025 153.108035 
L 241.333155 157.648427 
L 247.50603 165.643948 
L 251.02143 169.80782 
L 253.176705 172.288425 
L 254.84652 174.481102 
L 255.27339 174.990512 
L 256.533075 176.895262 
L 257.391 178.113416 
L 260.148915 183.40685 
L 267.67773 199.597225 
L 269.37684 202.520795 
L 270.42309 204.159766 
L 271.121985 205.023548 
L 271.783215 206.086664 
L 272.754135 207.238374 
L 275.708745 210.339129 
L 281.484045 215.101005 
L 282.697695 215.876194 
L 283.32963 216.385604 
L 283.63932 216.518493 
L 284.87808 217.44872 
L 285.7653 217.935981 
L 286.079175 218.246057 
L 286.37631 218.312502 
L 286.94547 218.755467 
L 291.38157 221.723333 
L 291.988395 222.14415 
L 294.256665 223.67238 
L 295.39917 224.447569 
L 305.598015 231.512863 
L 306.07929 231.911531 
L 307.33479 232.952499 
L 307.807695 233.373316 
L 309.83742 235.078732 
L 310.586535 235.74318 
L 312.745995 237.64793 
L 313.47 238.268081 
L 313.926165 238.688898 
L 314.629245 239.309049 
L 315.07704 239.707718 
L 316.412055 240.881575 
L 319.642875 243.096401 
L 322.145505 244.469593 
L 322.80255 244.691075 
L 323.02017 244.912558 
L 323.451225 245.001151 
L 324.296595 245.466264 
L 324.71928 245.532709 
L 325.14615 245.754192 
L 325.585575 245.842785 
L 325.803195 246.019971 
L 326.029185 245.997822 
L 326.62764 246.263602 
L 327.08799 246.307898 
L 327.89988 246.573677 
L 328.314195 246.640122 
L 328.52763 246.79516 
L 328.93776 246.79516 
L 329.837535 247.083087 
L 330.0426 247.038791 
L 330.423435 247.17168 
L 333.29016 247.747535 
L 334.69632 247.991166 
L 335.445435 248.101907 
L 336.05226 248.168352 
L 336.449835 248.234796 
L 337.03992 248.279093 
L 338.18661 248.456279 
L 338.52141 248.478427 
L 338.9148 248.500575 
L 339.72669 248.589168 
L 340.618095 248.69991 
L 343.957725 249.009985 
L 345.20067 249.120727 
L 345.774015 249.231468 
L 345.958155 249.142875 
L 346.870485 249.297913 
L 347.05881 249.20932 
L 347.40198 249.297913 
L 347.74515 249.253616 
L 347.90418 249.364357 
L 348.48171 249.386506 
L 349.48611 249.475099 
L 349.833465 249.475099 
L 350.461215 249.475099 
L 351.155925 249.58584 
L 351.93015 249.563692 
L 352.40724 249.630137 
L 354.13146 249.763026 
L 354.328155 249.696581 
L 354.82617 249.785174 
L 355.508325 249.895916 
L 356.889375 249.984509 
L 357.157215 249.940212 
L 357.307875 250.006657 
L 357.500385 249.96236 
L 358.077915 250.050953 
L 358.52571 250.073102 
L 358.96095 250.073102 
L 359.274825 250.050953 
L 359.94024 250.117398 
L 361.476135 250.205991 
L 361.601685 250.161695 
L 362.078775 250.316733 
L 362.34243 250.316733 
L 363.92436 250.427474 
L 364.10013 250.449622 
L 364.263345 250.338881 
L 364.527 250.47177 
L 364.73625 250.449622 
L 366.280515 250.60466 
L 366.71994 250.60466 
L 367.26399 250.671105 
L 367.84152 250.648956 
L 368.31861 250.693253 
L 368.99658 250.693253 
L 368.99658 250.693253 
" style="fill:none;stroke:#ff0000;stroke-linecap:square;stroke-width:1.5;"/>
   </g>
   <g id="patch_3">
    <path d="M 54 252 
L 54 34.56 
" style="fill:none;stroke:#000000;stroke-linecap:square;stroke-linejoin:miter;stroke-width:0.8;"/>
   </g>
   <g id="patch_4">
    <path d="M 388.8 252 
L 388.8 34.56 
" style="fill:none;stroke:#000000;stroke-linecap:square;stroke-linejoin:miter;stroke-width:0.8;"/>
   </g>
   <g id="patch_5">
    <path d="M 54 252 
L 388.8 252 
" style="fill:none;stroke:#000000;stroke-linecap:square;stroke-linejoin:miter;stroke-width:0.8;"/>
   </g>
   <g id="patch_6">
    <path d="M 54 34.56 
L 388.8 34.56 
" style="fill:none;stroke:#000000;stroke-linecap:square;stroke-linejoin:miter;stroke-width:0.8;"/>
   </g>
   <g id="legend_1">
    <g id="patch_7">
     <path d="M 268.494063 107.408125 
L 379 107.408125 
Q 381.8 107.408125 381.8 104.608125 
L 381.8 44.36 
Q 381.8 41.56 379 41.56 
L 268.494063 41.56 
Q 265.694063 41.56 265.694063 44.36 
L 265.694063 104.608125 
Q 265.694063 107.408125 268.494063 107.408125 
z
" style="fill:#ffffff;opacity:0.8;stroke:#cccccc;stroke-linejoin:miter;"/>
    </g>
    <g id="line2d_26">
     <path d="M 271.294063 52.897813 
L 299.294063 52.897813 
" style="fill:none;stroke:#000000;stroke-linecap:square;stroke-width:1.5;"/>
    </g>
    <g id="line2d_27"/>
    <g id="text_14">
     <!-- 2°C/min -->
     <g transform="translate(310.494063 57.797813)scale(0.14 -0.14)">
      <use xlink:href="#DejaVuSans-50"/>
      <use x="63.623047" xlink:href="#DejaVuSans-176"/>
      <use x="113.623047" xlink:href="#DejaVuSans-67"/>
      <use x="183.447266" xlink:href="#DejaVuSans-47"/>
      <use x="217.138672" xlink:href="#DejaVuSans-109"/>
      <use x="314.550781" xlink:href="#DejaVuSans-105"/>
      <use x="342.333984" xlink:href="#DejaVuSans-110"/>
     </g>
    </g>
    <g id="line2d_28">
     <path d="M 271.294063 73.447188 
L 299.294063 73.447188 
" style="fill:none;stroke:#0000ff;stroke-linecap:square;stroke-width:1.5;"/>
    </g>
    <g id="line2d_29"/>
    <g id="text_15">
     <!-- 5°C/min -->
     <defs>
      <path d="M 10.796875 72.90625 
L 49.515625 72.90625 
L 49.515625 64.59375 
L 19.828125 64.59375 
L 19.828125 46.734375 
Q 21.96875 47.46875 24.109375 47.828125 
Q 26.265625 48.1875 28.421875 48.1875 
Q 40.625 48.1875 47.75 41.5 
Q 54.890625 34.8125 54.890625 23.390625 
Q 54.890625 11.625 47.5625 5.09375 
Q 40.234375 -1.421875 26.90625 -1.421875 
Q 22.3125 -1.421875 17.546875 -0.640625 
Q 12.796875 0.140625 7.71875 1.703125 
L 7.71875 11.625 
Q 12.109375 9.234375 16.796875 8.0625 
Q 21.484375 6.890625 26.703125 6.890625 
Q 35.15625 6.890625 40.078125 11.328125 
Q 45.015625 15.765625 45.015625 23.390625 
Q 45.015625 31 40.078125 35.4375 
Q 35.15625 39.890625 26.703125 39.890625 
Q 22.75 39.890625 18.8125 39.015625 
Q 14.890625 38.140625 10.796875 36.28125 
z
" id="DejaVuSans-53"/>
     </defs>
     <g transform="translate(310.494063 78.347188)scale(0.14 -0.14)">
      <use xlink:href="#DejaVuSans-53"/>
      <use x="63.623047" xlink:href="#DejaVuSans-176"/>
      <use x="113.623047" xlink:href="#DejaVuSans-67"/>
      <use x="183.447266" xlink:href="#DejaVuSans-47"/>
      <use x="217.138672" xlink:href="#DejaVuSans-109"/>
      <use x="314.550781" xlink:href="#DejaVuSans-105"/>
      <use x="342.333984" xlink:href="#DejaVuSans-110"/>
     </g>
    </g>
    <g id="line2d_30">
     <path d="M 271.294063 93.996563 
L 299.294063 93.996563 
" style="fill:none;stroke:#ff0000;stroke-linecap:square;stroke-width:1.5;"/>
    </g>
    <g id="line2d_31"/>
    <g id="text_16">
     <!-- 20°C/min -->
     <g transform="translate(310.494063 98.896563)scale(0.14 -0.14)">
      <use xlink:href="#DejaVuSans-50"/>
      <use x="63.623047" xlink:href="#DejaVuSans-48"/>
      <use x="127.246094" xlink:href="#DejaVuSans-176"/>
      <use x="177.246094" xlink:href="#DejaVuSans-67"/>
      <use x="247.070312" xlink:href="#DejaVuSans-47"/>
      <use x="280.761719" xlink:href="#DejaVuSans-109"/>
      <use x="378.173828" xlink:href="#DejaVuSans-105"/>
      <use x="405.957031" xlink:href="#DejaVuSans-110"/>
     </g>
    </g>
   </g>
  </g>
 </g>
 <defs>
  <clipPath id="pa47ccf754e">
   <rect height="217.44" width="334.8" x="54" y="34.56"/>
  </clipPath>
 </defs>
</svg>
